<?xml version="1.0" encoding="UTF-8"?><svg id="Layer_1" xmlns="http://www.w3.org/2000/svg" viewBox="0 0 240.8 205.4"><path d="M8.7,195H2.5v1.3h2.4v6.4h1.4v-6.4h2.4s0-1.3,0-1.3ZM9.5,196.7h1.5v-1.5h-1.5v1.5ZM9.5,202.7h1.4v-5.2h-1.4v5.2ZM13.5,197.5h-1.4v7.9h1.4v-3.5c.3.6.9.9,1.6.9,1.6,0,2.3-1.1,2.3-2.7s-.8-2.7-2.3-2.7-1.4.4-1.6.9v-.8h0ZM14.7,201.8c-.8,0-1.3-.5-1.3-1.6s.5-1.6,1.3-1.6,1.2.7,1.2,1.6-.4,1.6-1.2,1.6h0ZM20.8,202.8c1.7,0,2.7-1.1,2.7-2.7s-1-2.7-2.7-2.7-2.7,1.1-2.7,2.7,1,2.7,2.7,2.7h0ZM20.8,201.8c-.9,0-1.3-.7-1.3-1.6s.4-1.6,1.3-1.6,1.3.7,1.3,1.6-.4,1.6-1.3,1.6h0ZM30.1,195v3.3c-.3-.5-.9-.9-1.6-.9-1.6,0-2.3,1.1-2.3,2.7s.8,2.7,2.3,2.7,1.4-.3,1.6-.9v.8h1.4v-7.8h-1.4ZM28.8,201.8c-.9,0-1.2-.7-1.2-1.6s.4-1.6,1.2-1.6,1.2.5,1.2,1.6-.5,1.6-1.2,1.6h0ZM37.7,200.1c0-1.6-.9-2.7-2.6-2.7s-2.7,1.2-2.7,2.7,1,2.7,2.7,2.7,2.2-.9,2.4-1.5l-1.2-.5c-.2.5-.5.9-1.2.9s-1.2-.4-1.3-1.3h3.8v-.4h0ZM35.2,198.5c.7,0,1,.5,1.1,1.1h-2.4c0-.7.6-1.1,1.2-1.1h.1ZM47.2,197.4c-.7,0-1.4.3-1.8,1.1-.3-.7-.8-1.1-1.7-1.1s-1.3.3-1.7.9v-.8h-1.4v5.2h1.4v-2.8c0-.9.4-1.4,1.2-1.4s1,.5,1,1.1v3.1h1.4v-2.8c0-.9.5-1.4,1.2-1.4s1,.5,1,1.1v3.1h1.4v-3.3c0-1.2-.6-2-1.9-2h-.1ZM51.7,202.8c.7,0,1.3-.2,1.7-.9v.7h1.4v-3.4c0-1.2-.8-1.9-2.3-1.9s-2.2.8-2.4,1.5l1.2.3c.2-.4.5-.7,1.1-.7s.9.3.9.8v.2h-.8c-1.3.3-2.5.6-2.5,1.9s.7,1.5,1.8,1.5h-.1ZM52.1,201.8c-.5,0-.8-.2-.8-.6,0-.6.4-.6,1.1-.7h.8c0-.1,0,0,0,0,0,.9-.5,1.3-1.1,1.3h0ZM55.8,197.5v5.2h1.4v-2.5c0-.8.4-1.3,1-1.3s.5,0,.8.2l.4-1.5c-.2-.1-.5-.2-.8-.2-.6,0-1.2.4-1.4,1.2v-1.1h-1.4,0ZM62.1,197.4c-1.8,0-2.7,1.2-2.7,2.7s1,2.7,2.7,2.7,2.4-1,2.6-1.9l-1.2-.4c-.2.6-.5,1.2-1.3,1.2s-1.3-.5-1.3-1.6.5-1.6,1.3-1.6,1.2.6,1.3,1.2l1.2-.4c-.2-.9-.9-1.9-2.6-1.9h0ZM67,202.8c.7,0,1.3-.2,1.7-.9v.7h1.4v-3.4c0-1.2-.8-1.9-2.3-1.9s-2.2.8-2.4,1.5l1.2.3c.2-.4.4-.7,1.1-.7s1,.3,1,.8v.2h-.9c-1.3.3-2.5.6-2.5,1.9s.7,1.5,1.7,1.5h0ZM67.5,201.8c-.5,0-.8-.2-.8-.6,0-.6.5-.6,1.1-.7h.9c0-.1,0,0,0,0,0,.9-.5,1.3-1.1,1.3h0ZM73.7,201.8c-.8,0-1.3-.5-1.3-1.6s.5-1.6,1.3-1.6,1.2.6,1.4,1.2l1.2-.4c-.2-.9-.9-1.9-2.6-1.9s-2.7,1.2-2.7,2.7.9,2.6,2.4,2.7l-.2.7c.8,0,1,0,1,.4s-.2.4-1.2.4v.7c1.5,0,2.2-.3,2.2-1s-.4-.8-1.3-.8v-.3c1.6,0,2.3-1.1,2.5-1.9l-1.2-.4c-.2.6-.5,1.2-1.4,1.2h-.1ZM77.6,196.7h.8c0-.2,0-.3.3-.3s.9.3,1.4.3.9-.3.9-1.3h-.8c0,.2,0,.3-.3.3s-1-.3-1.4-.3-.9.3-.9,1.3h0ZM78.6,202.8c.7,0,1.3-.2,1.7-.9v.7h1.4v-3.4c0-1.2-.8-1.9-2.3-1.9s-2.2.8-2.4,1.5l1.2.3c.2-.4.5-.7,1.1-.7s.9.3.9.8v.2h-.8c-1.3.3-2.5.6-2.5,1.9s.7,1.5,1.8,1.5h0ZM79,201.8c-.5,0-.8-.2-.8-.6,0-.6.4-.6,1.1-.7h.8c0-.1,0,0,0,0,0,.9-.5,1.3-1.1,1.3h0ZM85.2,202.8c1.7,0,2.7-1.1,2.7-2.7s-1-2.7-2.7-2.7-2.7,1.1-2.7,2.7,1,2.7,2.7,2.7h0ZM85.2,201.8c-.9,0-1.3-.7-1.3-1.6s.4-1.6,1.3-1.6,1.3.7,1.3,1.6-.4,1.6-1.3,1.6h0ZM88.8,199.2h1.5v-1.5h-1.5v1.5ZM88.8,202h1.5v-1.5h-1.5v1.5Z"/><path d="M2.7,182.3h1.4v-2.6h1.6c1.8,0,2.7-1.1,2.7-2.6s-.9-2.5-2.7-2.5h-3v7.8h0ZM4.1,178.3v-2.4h1.6c.7,0,1.3.3,1.3,1.2s-.6,1.2-1.3,1.2h-1.6ZM9.3,177.1v5.2h1.4v-2.5c0-.8.4-1.3,1-1.3s.5,0,.7.2l.5-1.5c-.2-.1-.5-.2-.8-.2-.6,0-1.2.4-1.4,1.2v-1.1h-1.4ZM15.6,182.4c1.7,0,2.7-1.1,2.7-2.7s-1-2.7-2.7-2.7-2.7,1.1-2.7,2.7,1,2.7,2.7,2.7h0ZM15.6,181.3c-.9,0-1.3-.7-1.3-1.6s.4-1.6,1.3-1.6,1.3.7,1.3,1.6-.4,1.6-1.3,1.6h0ZM23,174.5v3.3c-.3-.5-.9-.9-1.6-.9-1.6,0-2.3,1.1-2.3,2.7s.8,2.7,2.3,2.7,1.4-.3,1.6-.9v.8h1.4v-7.8h-1.4ZM21.8,181.3c-.9,0-1.2-.7-1.2-1.6s.4-1.6,1.2-1.6,1.2.5,1.2,1.6-.5,1.6-1.2,1.6h0ZM30.5,177.1h-1.4v2.8c0,.9-.5,1.4-1.2,1.4s-1-.4-1-1.1v-3.1h-1.4v3.3c0,1.2.6,2,1.9,2s1.3-.3,1.7-.9v.8h1.4v-5.2ZM34.8,181.2c-.2.1-.4.2-.7.2-.6,0-.8-.4-.8-.9v-2.3h1.6v-1.1h-1.6v-1.4h-1v.3c-.3,1-.5,1.1-1.1,1.1h0v1.1h.7v2.3c0,1.2.6,1.9,2,1.9s1-.1,1.2-.3l-.4-.9h0ZM38.1,182.4c1.7,0,2.7-1.1,2.7-2.7s-1-2.7-2.7-2.7-2.7,1.1-2.7,2.7,1,2.7,2.7,2.7h0ZM38.1,181.3c-.9,0-1.3-.7-1.3-1.6s.4-1.6,1.3-1.6,1.3.7,1.3,1.6-.4,1.6-1.3,1.6h0ZM41.7,178.7h1.5v-1.5h-1.5v1.5ZM41.7,181.5h1.5v-1.5h-1.5v1.5Z"/><path d="M2.5,160.8h1.4v-2.6h1.6c1.9,0,2.8-1.1,2.8-2.6s-.9-2.5-2.8-2.5h-3v7.8h0ZM3.9,156.8v-2.4h1.6c.7,0,1.3.3,1.3,1.2s-.6,1.2-1.3,1.2h-1.6ZM10.4,160.9c.6,0,1.3-.2,1.6-.9v.7h1.4v-3.4c0-1.2-.8-1.9-2.3-1.9s-2.2.8-2.4,1.5l1.2.3c.2-.4.5-.7,1.1-.7s1,.3,1,.8v.2l-.8.2c-1.3.2-2.5.5-2.5,1.8s.7,1.5,1.8,1.5h-.1ZM10.9,159.9c-.5,0-.8-.2-.8-.6s.4-.6,1.1-.7h.8c0-.1,0,0,0,0,0,.9-.5,1.3-1.1,1.3h0ZM14.7,154.8h1l1.2-1.7h-1.4s-.8,1.7-.8,1.7ZM14.5,160.8h1.4v-5.2h-1.4v5.2ZM19.2,155.5c-1.2,0-2.3.5-2.3,1.6,0,2.2,3.2,1.3,3.2,2.2s-.5.5-1,.5c-.8,0-1.3-.4-1.7-.8l-.7.9c.6.6,1.4.9,2.4.9s2.4-.6,2.4-1.7c0-2.1-3.2-1.3-3.2-2.2s.3-.4.8-.4,1.1.3,1.4.7l.8-.8c-.5-.6-1.2-.9-2.2-.9h.1ZM22.4,157.3h1.5v-1.5h-1.5v1.5ZM22.4,160.1h1.5v-1.5h-1.5v1.5Z"/><path d="M6,138.4c-1.5,0-2.4-1.1-2.4-2.7s.9-2.7,2.4-2.7,2.2.8,2.4,2.1l1.4-.5c-.4-1.7-1.8-2.9-3.8-2.9s-3.9,1.8-3.9,4,1.5,4,3.9,4,3.4-1.2,3.8-2.9l-1.4-.5c-.2,1.3-1.1,2.1-2.4,2.1h0ZM13.2,139.7c1.7,0,2.7-1.1,2.7-2.7s-1-2.7-2.7-2.7-2.7,1.1-2.7,2.7,1,2.7,2.7,2.7h0ZM13.2,138.6c-.9,0-1.3-.7-1.3-1.6s.4-1.6,1.3-1.6,1.3.7,1.3,1.6-.4,1.6-1.3,1.6h0ZM23.5,134.3c-.7,0-1.4.3-1.8,1.1-.3-.7-.8-1.1-1.7-1.1s-1.3.3-1.7.9v-.8h-1.4v5.2h1.4v-2.8c0-.9.4-1.4,1.2-1.4s1,.5,1,1.1v3.1h1.4v-2.8c0-.9.4-1.4,1.2-1.4s1,.5,1,1.1v3.1h1.4v-3.3c0-1.2-.6-2-1.9-2h-.1ZM31.5,136.9c0-1.6-.9-2.6-2.6-2.6s-2.7,1.1-2.7,2.7,1,2.7,2.7,2.7,2.2-.9,2.4-1.5l-1.2-.5c-.2.5-.5.9-1.2.9s-1.2-.4-1.3-1.3h3.8v-.5h0ZM28.9,135.4c.7,0,1,.5,1.1,1.1h-2.4c0-.7.6-1.1,1.2-1.1h.1ZM32.4,134.4v5.2h1.4v-2.5c0-.8.4-1.3,1-1.3s.5,0,.7.2l.5-1.5c-.2-.1-.5-.2-.8-.2-.6,0-1.2.4-1.4,1.2v-1.1h-1.4ZM38.7,134.3c-1.7,0-2.7,1.1-2.7,2.7s1,2.7,2.7,2.7,2.4-1,2.6-1.9l-1.2-.4c-.2.6-.5,1.2-1.3,1.2s-1.3-.5-1.3-1.6.5-1.6,1.3-1.6,1.2.6,1.3,1.2l1.2-.5c-.2-.8-.9-1.9-2.6-1.9h0ZM42.2,133.5h1.5v-1.5h-1.5v1.5ZM42.2,139.6h1.4v-5.2h-1.4v5.2ZM46.3,139.7c.6,0,1.3-.2,1.6-.9v.7h1.4v-3.4c0-1.2-.8-1.9-2.3-1.9s-2.2.8-2.4,1.5l1.2.3c.2-.4.5-.7,1.1-.7s1,.3,1,.8v.2h-.9c-1.3.3-2.5.6-2.5,1.9s.7,1.5,1.8,1.5h0ZM46.8,138.7c-.5,0-.8-.2-.8-.6s.5-.6,1.1-.7h.9c0-.1,0,0,0,0,0,.9-.5,1.3-1.1,1.3h-.1ZM50.4,131.8v7.8h1.4v-7.8h-1.4ZM52.9,136h1.5v-1.5h-1.5v1.5ZM52.9,138.8h1.5v-1.5h-1.5v1.5Z"/><path d="M5.8,117.1c-1.5,0-2.4-1.1-2.4-2.7s.9-2.7,2.4-2.7,2.2.8,2.4,2.1l1.4-.5c-.4-1.7-1.8-2.9-3.8-2.9s-3.9,1.8-3.9,4,1.5,4,3.9,4,3.4-1.2,3.8-2.9l-1.4-.5c-.2,1.3-1.1,2.1-2.4,2.1h0ZM10.4,110.5v7.8h1.4v-7.8h-1.4ZM12.9,112.2h1.4v-1.5h-1.4v1.5ZM12.9,118.3h1.4v-5.2h-1.4v5.2ZM20.6,115.6c0-1.6-.9-2.6-2.6-2.6s-2.7,1.1-2.7,2.7,1,2.7,2.7,2.7,2.2-.9,2.4-1.5l-1.2-.5c-.2.5-.5.9-1.2.9s-1.2-.4-1.3-1.3h3.9v-.5h0ZM18,114.1c.7,0,1,.5,1.1,1.1h-2.4c.1-.7.6-1.1,1.3-1.1h0ZM21.5,113.1v5.2h1.4v-2.8c0-.9.5-1.4,1.2-1.4s1,.5,1,1.1v3.1h1.4v-3.3c0-1.2-.6-2-1.9-2s-1.3.3-1.7.9v-.8h-1.4ZM30.7,117.2c-.2,0-.4.2-.7.2-.6,0-.8-.4-.8-.9v-2.4h1.6v-1.1h-1.6v-1.4h-1v.3c-.3,1-.5,1.1-1.1,1.1h0v1.1h.7v2.4c0,1.2.6,1.9,2,1.9s1,0,1.2-.3l-.4-.9h0ZM36.6,115.6c0-1.6-.9-2.6-2.6-2.6s-2.7,1.1-2.7,2.7,1,2.7,2.7,2.7,2.2-.9,2.4-1.5l-1.2-.5c-.2.5-.5.9-1.2.9s-1.2-.4-1.3-1.3h3.9v-.5h0ZM34,114.1c.7,0,1,.5,1.1,1.1h-2.4c0-.7.6-1.1,1.3-1.1h0ZM37.5,114.7h1.5v-1.5h-1.5v1.5ZM37.5,117.5h1.5v-1.5h-1.5v1.5Z"/><path d="M121.8,19.4v.6h-9.1v-.6c2.6-.1,3.2-1,3-3.6l-.6-12.3-5.9,16.4h-2.3l-6.1-16.4-.3,12.3c0,2.5.5,3.4,2.9,3.6v.6h-7.3v-.6c2.6-.1,2.9-1,3-3.6l.6-11.3c0-2.5-.5-3.4-3-3.6V.3h6.2l6.2,17L114.7.3h6.4v.6c-2.6,0-3.1,1-3,3.6l.6,11.3c0,2.5.5,3.4,3,3.6h.1ZM75.9,9.9c3.5,0,4.6-1.7,4.6-4.4s-.9-4.4-3.9-4.4-2.7,1-2.7,3.4v5.4h2.1,0ZM86.2.3h9.1v.6c-2.6,0-3,1-3,3.6v11.3c0,2.5.4,3.4,3,3.6v.6h-9.1c-10,0-8-9.4-11.9-9.4h-.6v5.2c0,2.5.5,3.4,3.1,3.6v.6h-9.1v-.6c2.6-.1,3-1,3-3.6V4.5c0-2.5-.5-3.4-3-3.6V.3h9.1c5.1,0,7,2.2,7,4.9s-2.2,5-6.6,5.3c4.4,1.5,5.6,8.8,9.7,8.8s2.4-1,2.4-3.6V4.5c0-2.5-.5-3.4-3-3.6V.3h0ZM66.8,10.2c0,7.6-6.9,9.8-9.3,10.1v-.6c4.2-1,5.9-4.6,5.9-9.5s-1.8-8.5-5.9-9.5V.1c2.4.3,9.3,2.6,9.3,10.1h0ZM55,0v.6c-4.2,1-6,4.6-6,9.5s1.8,8.5,6,9.5v.6c-2.4-.3-9.3-2.6-9.3-10.1S52.6.3,55,0h0ZM12.4,12.9l-3.5-9.6-3.2,9.6h6.7ZM45.3,19.4v.6h-9.2v-.6c2.6-.1,3.2-1,3.1-3.6l-.6-12.3-5.9,16.4h-2.3L24.3,3.5l-.3,12.3c0,2.5.5,3.4,2.9,3.6v.6h-15.4v-.6c2.5-.1,2.5-1.7,1.8-3.6l-.7-2h-7.3l-.7,2c-.6,1.9-.7,3.4,1.8,3.6v.6H0v-.6c2-.1,2.5-1.6,3.2-3.6L9,.3h2l5.5,15.5c.9,2.5,1.2,3.6,3.3,3.6s2.8-1,2.9-3.6l.6-11.3c.1-2.5-.5-3.4-3-3.6V.3h6.2l6.2,17L38.3.3h6.4v.6c-2.6,0-3.2,1-3.1,3.6l.6,11.3c0,2.5.5,3.4,3.1,3.6h0Z"/><path d="M17.9,37.8h.6l-.3,4.3c-1.5.6-3.4,1.2-6.2,1.2-5.1,0-10.7-3.2-10.7-10.1s5.5-10.1,10.7-10.1,4.6.4,6.2,1.2l.3,4.1h-.6c-1.2-3.2-3.3-4.6-5.9-4.6-4.5,0-7.3,3.4-7.3,9.4s2.8,9.4,7.3,9.4,4.7-.9,5.9-4.8h0Z"/><path d="M38.5,33.2c0-6-2.8-9.4-7.1-9.4s-7.1,3.4-7.1,9.4,2.8,9.4,7.1,9.4,7.1-3.4,7.1-9.4h0ZM41.8,33.2c0,6.9-5.5,10.1-10.5,10.1s-10.5-3.2-10.5-10.1,5.5-10.1,10.5-10.1,10.5,3.2,10.5,10.1h0Z"/><path d="M51.1,32.9c3.4,0,4.5-1.8,4.5-4.4s-.9-4.4-3.9-4.4-2.7,1-2.7,3.4v5.4h2.2,0ZM81.9,42.4v.6h-8.4v-.6c1.4,0,1.6-.7.2-2.3l-6.3-6.5v5.2c0,2.5.5,3.4,3.1,3.5v.6h-9.1c-10,0-8-9.4-11.8-9.4h-.6v5.2c0,2.5.5,3.4,3.1,3.5v.6h-9.2v-.6c2.6,0,3.1-1,3.1-3.5v-11.4c0-2.5-.5-3.4-3.1-3.5v-.6h9.2c5.1,0,7,2.2,7,4.9s-2.2,5-6.6,5.3c4.4,1.5,5.6,8.8,9.6,8.8s2.4-1,2.4-3.5v-11.4c0-2.5-.5-3.4-3-3.5v-.6h9.1v.6c-2.6.1-3.1,1-3.1,3.5v5.8l7.2-6.7c1.4-1.3,1.8-2.5,0-2.6v-.6h6.7v.6c-1.6.1-3.5,1.3-5,2.6l-6.1,5.4,6.7,7.1c1.6,1.8,3.5,3.1,5,3.2h0v.3Z"/><path d="M3.1,72.9h1.2v-5.5h7.4v-1h-7.4v-5.2h8.2v-1H3.1v12.7ZM14.3,62.8h1.4v-1.7h-1.4v1.7ZM14.4,72.9h1.2v-8.5h-1.2v8.5ZM22.4,64.2c-2.9,0-4.8,1.8-4.8,4.4s1.9,4.4,4.8,4.4,4.3-1.7,4.6-3.4l-1-.3c-.5,1.5-1.4,2.8-3.6,2.8s-3.5-1.4-3.5-3.5,1.4-3.5,3.5-3.5,3.1,1.3,3.6,2.8l1-.3c-.4-1.6-1.8-3.4-4.6-3.4h0ZM29,60.2v12.7h1.2v-4.5c0-2.3,1.5-3.3,3.2-3.3s2.6,1,2.6,2.4v5.4h1.2v-5.4c0-1.8-.9-3.3-3.6-3.3s-2.7.7-3.4,1.7v-5.7h-1.2ZM42.4,73c1.4,0,2.7-.5,3.3-1.6v1.4h1.2v-5.7c0-1.8-1.1-3-3.5-3s-3.5,1.1-3.9,2.1l1,.3c.5-.9,1.2-1.6,2.9-1.6s2.4.6,2.4,2.1v.5l-2,.3c-2.4.4-4.5.9-4.5,2.8s1.3,2.3,3.2,2.3h-.1ZM42.6,72.2c-1.5,0-2.2-.6-2.2-1.5,0-1.3,1.3-1.6,3.2-1.9l2-.3v.6c0,2.6-1.6,3.2-3.1,3.2h0ZM60.3,60.2v5.8c-.7-1.2-2-1.8-3.6-1.8-2.8,0-4.5,1.7-4.5,4.4s1.6,4.4,4.5,4.4,2.9-.6,3.6-1.8v1.6h1.2v-12.7h-1.2ZM56.8,72.2c-2.2,0-3.4-1.4-3.4-3.5s1.2-3.5,3.4-3.5,3.5,1,3.5,3.5-1.6,3.5-3.5,3.5h0ZM72.9,68.3c0-2.4-1.6-4.1-4.6-4.1s-4.8,1.8-4.8,4.4,1.9,4.4,4.8,4.4,4-1.6,4.4-2.8l-1-.3c-.5,1.1-1.2,2.2-3.4,2.2s-3.5-1.4-3.5-3.3h8.1s0-.5,0-.5ZM68.3,65.1c2.2,0,3.2,1.3,3.3,2.9h-6.9c.3-1.7,1.6-2.9,3.5-2.9h0ZM90,64.2c-1.6,0-2.8.7-3.6,2-.4-1.2-1.4-2-3.5-2s-2.7.7-3.4,1.7v-1.6h-1.2v8.5h1.2v-4.5c0-2.3,1.5-3.3,3.2-3.3s2.6,1,2.6,2.4v5.4h1.2v-4.5c0-2.3,1.6-3.3,3.2-3.3s2.6,1,2.6,2.4v5.4h1.2v-5.4c0-1.8-.9-3.3-3.6-3.3h.1ZM98.7,73c1.4,0,2.7-.5,3.3-1.6v1.4h1.2v-5.7c0-1.8-1.1-3-3.6-3s-3.4,1.1-3.9,2.1l1,.3c.5-.9,1.1-1.6,2.9-1.6s2.4.6,2.4,2.1v.5l-2,.3c-2.5.4-4.5.9-4.5,2.8s1.3,2.3,3.2,2.3h0ZM98.9,72.2c-1.5,0-2.2-.6-2.2-1.5,0-1.3,1.3-1.6,3.2-1.9l2-.3v.6c0,2.6-1.6,3.2-3,3.2h0ZM105.5,64.4v8.5h1.2v-4.5c0-2,1.1-3.2,2.5-3.2s.9,0,1.2.3l.5-1c-.5-.3-1-.3-1.5-.3-1.2,0-2.2.6-2.7,1.8v-1.6s-1.2,0-1.2,0ZM115.7,64.2c-2.9,0-4.8,1.8-4.8,4.4s1.9,4.4,4.8,4.4,4.3-1.7,4.6-3.4l-1-.3c-.4,1.5-1.4,2.8-3.6,2.8s-3.5-1.4-3.5-3.5,1.4-3.5,3.5-3.5,3.2,1.3,3.6,2.8l1-.3c-.4-1.6-1.8-3.4-4.6-3.4h0ZM125,73c1.4,0,2.7-.5,3.3-1.6v1.4h1.2v-5.7c0-1.8-1.1-3-3.6-3s-3.4,1.1-3.9,2.1l1,.3c.5-.9,1.1-1.6,2.9-1.6s2.4.6,2.4,2.1v.5l-2,.3c-2.4.4-4.5.9-4.5,2.8s1.3,2.3,3.2,2.3h0ZM125.2,72.2c-1.5,0-2.2-.6-2.2-1.5,0-1.3,1.3-1.6,3.2-1.9l2-.3v.6c0,2.6-1.6,3.2-3,3.2h0ZM136.1,72.2c-2.2,0-3.6-1.4-3.6-3.5s1.4-3.5,3.6-3.5,3.1,1.3,3.6,2.8l1-.3c-.4-1.6-1.8-3.4-4.6-3.4s-4.8,1.8-4.8,4.4,1.7,4.2,4.3,4.4l-.3,1.2c1.8,0,2.3,0,2.3.7s-.4.8-2.7.8v.8c2.7,0,3.8-.5,3.8-1.6s-.7-1.2-2.4-1.2l.2-.7c2.6,0,3.9-1.8,4.3-3.4l-1-.3c-.4,1.5-1.4,2.8-3.6,2.8,0,0-.1,0-.1,0ZM143.6,62.8h.9c0-.5.3-.6.6-.6.7,0,1.6.6,2.4.6s1.4-.5,1.4-1.5h-.9c0,.5-.2.6-.5.6-.7,0-1.6-.6-2.4-.6s-1.3.5-1.3,1.5h-.2ZM145.3,73c1.4,0,2.7-.5,3.3-1.6v1.4h1.2v-5.7c0-1.8-1.1-3-3.6-3s-3.4,1.1-3.9,2.1l1,.3c.5-.9,1.2-1.6,2.9-1.6s2.4.6,2.4,2.1v.5l-2,.3c-2.5.4-4.5.9-4.5,2.8s1.3,2.3,3.2,2.3h0ZM145.5,72.2c-1.5,0-2.2-.6-2.2-1.5,0-1.3,1.3-1.6,3.2-1.9l2-.3v.6c0,2.6-1.6,3.2-3.1,3.2h.1ZM156.5,73c2.8,0,4.8-1.8,4.8-4.4s-2-4.4-4.8-4.4-4.8,1.8-4.8,4.4,1.9,4.4,4.8,4.4h0ZM156.5,72.2c-2.4,0-3.5-1.8-3.5-3.5s1.1-3.5,3.5-3.5,3.5,1.8,3.5,3.5-1.1,3.5-3.5,3.5h0ZM174.4,60.2v5.8c-.7-1.2-2-1.8-3.6-1.8-2.8,0-4.5,1.7-4.5,4.4s1.7,4.4,4.5,4.4,2.9-.6,3.6-1.8v1.6h1.2v-12.7h-1.2ZM170.9,72.2c-2.2,0-3.4-1.4-3.4-3.5s1.2-3.5,3.4-3.5,3.5,1,3.5,3.5-1.6,3.5-3.5,3.5h0ZM186.9,68.3c0-2.4-1.6-4.1-4.6-4.1s-4.8,1.8-4.8,4.4,1.9,4.4,4.8,4.4,4-1.6,4.5-2.8l-1-.3c-.4,1.1-1.2,2.2-3.4,2.2s-3.5-1.4-3.6-3.3h8.1s0-.5,0-.5ZM182.4,65.1c2.2,0,3.2,1.3,3.3,2.9h-6.9c.3-1.7,1.6-2.9,3.5-2.9h0ZM192.4,64.4v8.5h1.2v-4.5c0-2,1.1-3.2,2.5-3.2s.9,0,1.3.3l.5-1c-.5-.3-1-.3-1.5-.3-1.2,0-2.2.6-2.7,1.8v-1.6s-1.3,0-1.3,0ZM202.7,73c2.8,0,4.8-1.8,4.8-4.4s-2-4.4-4.8-4.4-4.8,1.8-4.8,4.4,2,4.4,4.8,4.4h0ZM202.7,72.2c-2.4,0-3.5-1.8-3.5-3.5s1.1-3.5,3.5-3.5,3.6,1.8,3.6,3.5-1.1,3.5-3.6,3.5h0ZM209.4,60.2v12.7h1.2v-12.7s-1.2,0-1.2,0ZM213,60.2v12.7h1.2v-4.5c0-2.3,1.5-3.3,3.2-3.3s2.6,1,2.6,2.4v5.4h1.2v-5.4c0-1.8-.9-3.3-3.6-3.3s-2.7.7-3.4,1.7v-5.7h-1.2ZM226.4,73c1.4,0,2.7-.5,3.3-1.6v1.4h1.2v-5.7c0-1.8-1.1-3-3.6-3s-3.4,1.1-3.9,2.1l1,.3c.5-.9,1.2-1.6,2.9-1.6s2.4.6,2.4,2.1v.5l-2,.3c-2.5.4-4.5.9-4.5,2.8s1.3,2.3,3.2,2.3h0ZM226.6,72.2c-1.5,0-2.2-.6-2.2-1.5,0-1.3,1.3-1.6,3.2-1.9l2-.3v.6c0,2.6-1.6,3.2-3.1,3.2h.1ZM236.7,64.2c-2,0-3.7.8-3.7,2.4,0,3.5,6.6,1.6,6.6,3.9s-1.2,1.7-2.9,1.7-2.7-.6-3.3-1.3l-.8.6c.7,1,2.2,1.6,4.1,1.6s4.1-.8,4.1-2.6c0-3.5-6.6-1.5-6.6-4s1.1-1.4,2.6-1.4,2.3.7,2.9,1.3l.8-.6c-.7-1-1.8-1.6-3.7-1.6h-.1Z"/><path d="M54.1,116.5h-3.4l-.6,1.7h-.6l2.6-7.1h.7l2.6,7.1h-.6l-.6-1.7ZM54,116l-1.5-4.1-1.5,4.1h3Z"/><path d="M63.6,115.2v3h-.6v-3c0-.8-.4-1.3-1.3-1.3s-1.6.5-1.6,1.8v2.5h-.6v-3c0-.8-.4-1.3-1.3-1.3s-1.6.5-1.6,1.8v2.5h-.6v-4.7h.6v.9c.4-.6.9-1,1.7-1s1.5.5,1.7,1.1c.4-.8,1-1.1,1.8-1.1,1.3,0,1.8.8,1.8,1.8Z"/><path d="M64.5,115.9c0-1.4.9-2.4,2.3-2.4s2.3,1,2.3,2.4-1,2.4-2.3,2.4-2.3-1-2.3-2.4ZM68.6,115.9c0-1-.5-2-1.7-2s-1.7,1-1.7,2,.5,2,1.7,2,1.7-1,1.7-2Z"/><path d="M70.7,113.5v.9c.2-.7.8-1,1.3-1s.5,0,.7.2l-.2.6c-.2,0-.4-.2-.6-.2-.7,0-1.2.6-1.2,1.7v2.5h-.6v-4.7h.6Z"/><path d="M73.3,111.7h.7v.9h-.7v-.9ZM73.3,113.5h.6v4.7h-.6v-4.7Z"/><path d="M82.5,115.2v3h-.6v-3c0-.8-.4-1.3-1.3-1.3s-1.6.5-1.6,1.8v2.5h-.6v-3c0-.8-.4-1.3-1.3-1.3s-1.6.5-1.6,1.8v2.5h-.6v-4.7h.6v.9c.3-.6.9-1,1.7-1s1.5.5,1.7,1.1c.4-.8,1-1.1,1.8-1.1,1.3,0,1.8.8,1.8,1.8Z"/><path d="M91.4,115.4l.6.2c-.3,1.6-1.5,2.8-3.4,2.8s-3.4-1.6-3.4-3.6,1.3-3.6,3.4-3.6,3,1.2,3.4,2.8l-.6.2c-.2-1.4-1.3-2.4-2.8-2.4s-2.8,1.3-2.8,3.1,1.1,3.1,2.8,3.1,2.5-1,2.8-2.4Z"/><path d="M92.6,115.9c0-1.4.9-2.4,2.3-2.4s2.3,1,2.3,2.4-1,2.4-2.3,2.4-2.3-1-2.3-2.4ZM96.7,115.9c0-1-.5-2-1.7-2s-1.7,1-1.7,2,.5,2,1.7,2,1.7-1,1.7-2Z"/><path d="M98.9,113.5v.9c.2-.7.8-1,1.3-1s.5,0,.7.2l-.2.6c-.2,0-.4-.2-.6-.2-.7,0-1.2.6-1.2,1.7v2.5h-.6v-4.7h.6Z"/><path d="M103,115.8l-1,.9v1.6h-.6v-7h.6v4.7l2.6-2.4h.8l-2,1.8,2.1,2.8h-.7l-1.8-2.4Z"/><path d="M69,138h-3.4l-.6,1.7h-.6l2.6-7.1h.7l2.6,7.1h-.6l-.6-1.7ZM68.8,137.5l-1.5-4.1-1.5,4.1h3Z"/><path d="M76.8,136.9l.6.2c-.3,1.6-1.5,2.8-3.4,2.8s-3.4-1.6-3.4-3.6,1.3-3.6,3.4-3.6,3,1.2,3.4,2.8l-.6.2c-.2-1.4-1.3-2.4-2.8-2.4s-2.8,1.3-2.8,3.1,1.1,3.1,2.8,3.1,2.5-1,2.8-2.4Z"/><path d="M78.3,132.7h.6v7h-.6v-7Z"/><path d="M85.2,133.2h-2.3v6.5h-.6v-6.5h-2.3v-.5h5.3v.5Z"/><path d="M34.2,154h.6v7h-.6v-7Z"/><path d="M39,160.8c-.2.2-.6.3-.9.3-.9,0-1.5-.5-1.5-1.5v-2.8h-.9v-.5h0c.7,0,.8-.1.9-1v-.3h.5v1.3h1.6v.5h-1.6v2.8c0,.7.4,1,1,1s.5,0,.7-.2l.2.4Z"/><path d="M39.4,159.8c0-1.1,1-1.4,2.2-1.6l1-.2v-.3c0-.8-.5-1.1-1.2-1.1s-1.2.4-1.4.9l-.5-.2c.2-.6.8-1.2,1.9-1.2s1.7.6,1.7,1.6v3.2h-.6v-.8c-.3.6-.9.9-1.6.9s-1.6-.4-1.6-1.3ZM42.5,158.9v-.3l-1,.2c-.9.2-1.6.3-1.6,1.1s.3.8,1.1.8,1.5-.3,1.5-1.7ZM41.9,154h.7l-.9,1.4h-.5l.8-1.4Z"/><path d="M44.8,154v7h-.6v-7h.6Z"/><path d="M45.9,154.5h.7v.9h-.7v-.9ZM46,156.3h.6v4.7h-.6v-4.7Z"/><path d="M47.6,159.8c0-1.1,1-1.4,2.2-1.6l1-.2v-.3c0-.8-.5-1.1-1.2-1.1s-1.2.4-1.4.9l-.5-.2c.2-.6.8-1.2,1.9-1.2s1.7.6,1.7,1.6v3.2h-.6v-.8c-.3.6-.9.9-1.6.9s-1.6-.4-1.6-1.3ZM50.7,158.9v-.3l-1,.2c-.9.2-1.6.3-1.6,1.1s.3.8,1.1.8,1.5-.3,1.5-1.7Z"/><path d="M53.6,175.4h.7l4.2,6v-6h.6v7h-.7l-4.2-6v6h-.6v-7Z"/><path d="M64.7,180.2h-4c0,1.1.7,1.8,1.7,1.8s1.4-.6,1.6-1.2l.5.2c-.2.7-.8,1.5-2.2,1.5s-2.3-1-2.3-2.4.9-2.4,2.3-2.4,2.2,1,2.2,2.3v.3ZM60.7,179.7h3.3c0-.9-.5-1.6-1.6-1.6s-1.6.6-1.7,1.6Z"/><path d="M69.6,182.4h-.6v-.9c-.3.6-.9,1-1.7,1-1.3,0-1.8-.8-1.8-1.8v-3h.6v3c0,.8.4,1.3,1.3,1.3s1.6-.5,1.6-1.8v-2.5h.6v4.7Z"/><path d="M73.7,182.2c-.2.2-.6.3-.9.3-.9,0-1.5-.5-1.5-1.5v-2.8h-.9v-.5h.1c.7,0,.8-.1.9-1v-.3h.5v1.3h1.6v.5h-1.6v2.8c0,.7.3,1,1,1s.5,0,.7-.2l.2.4Z"/><path d="M79.3,180.7h-3.6v-.6l3.4-4.7h.7v4.7h1v.6h-1v1.7h-.6v-1.7ZM79.3,180.1v-4l-2.9,4h2.9Z"/><path d="M85.1,180.7h-3.6v-.6l3.4-4.7h.7v4.7h1v.6h-1v1.7h-.6v-1.7ZM85.1,180.1v-4l-2.9,4h2.9Z"/><path d="M90.7,182.4l-1.4-2-1.5,2h-.6l1.8-2.4-1.7-2.3h.7l1.4,1.8,1.3-1.8h.7l-1.7,2.3,1.8,2.4h-.7Z"/><path d="M92,181.6c0-2.4,4-2.3,4-4.3s-.6-1.5-1.6-1.5-1.7.3-1.7,1.4h-.6c0-1.4,1-1.9,2.3-1.9s2.2.6,2.2,2c0,2.5-4,2.4-4,4.3v.2h4.1v.6h-4.7v-.8Z"/><path d="M100.9,180.7h-3.6v-.6l3.4-4.7h.7v4.7h1v.6h-1v1.7h-.6v-1.7ZM100.9,180.1v-4l-2.9,4h2.9Z"/><path d="M100.7,195.7h4.6v.5h-4v2.9h3.6v.5h-3.6v3h-.6v-7Z"/><path d="M105.8,200.4c0-1.4.9-2.4,2.3-2.4s2.3,1,2.3,2.4-1,2.4-2.3,2.4-2.3-1-2.3-2.4ZM109.9,200.4c0-1-.5-2-1.7-2s-1.7,1-1.7,2,.5,2,1.7,2,1.7-1,1.7-2Z"/><path d="M115.6,198.5h-.9c.3.3.4.7.4,1.2,0,1.3-1,1.8-1.9,1.8h-.8c-.2,0-.6,0-.6.4s.3.4.6.4h1.5c.7,0,1.7.2,1.7,1.3s-.8,1.6-2.6,1.6-2.2-.5-2.2-1.3.4-.9,1-1.1c-.3-.1-.5-.4-.5-.7s.4-.7.9-.8c-.5-.2-.9-.7-.9-1.6,0-1.3,1-1.8,2-1.8s.5,0,.7.1h1.7v.5ZM113.8,202.9h-1.2c-.7,0-1.2.4-1.2.9s.5.9,1.7.9,1.9-.5,1.9-1.1-.5-.8-1.2-.8ZM114.5,199.7c0-.9-.7-1.3-1.4-1.3s-1.4.4-1.4,1.3.7,1.3,1.4,1.3,1.4-.4,1.4-1.3Z"/><path d="M115.9,200.4c0-1.4.9-2.4,2.3-2.4s2.3,1,2.3,2.4-1,2.4-2.3,2.4-2.3-1-2.3-2.4ZM120,200.4c0-1-.5-2-1.7-2s-1.7,1-1.7,2,.5,2,1.7,2,1.7-1,1.7-2Z"/></svg>