<?xml version="1.0" encoding="UTF-8"?><svg id="Layer_1" xmlns="http://www.w3.org/2000/svg" viewBox="0 0 170.5 12.1"><path d="M113.6,8.5c0-2.6,4.4-2.5,4.4-4.8s-.7-1.6-1.8-1.6-1.9.4-1.9,1.5h-.6c0-1.6,1.2-2.1,2.5-2.1s2.5.7,2.5,2.2c0,2.7-4.4,2.7-4.4,4.8v.2h4.5v.6h-5.2v-.8Z"/><path d="M119.7,7.4h.6c0,1.1,1,1.5,2,1.5s2.1-.6,2.1-1.6-1-1.7-2.1-1.6h-.8v-.6h.8c1.1,0,1.7-.7,1.7-1.5,0-.8-.5-1.4-1.7-1.4s-1.9.4-1.9,1.5h-.6c0-1.6,1.3-2.1,2.5-2.1s2.4.6,2.4,1.9-.6,1.6-1.3,1.8c1.1.2,1.7.9,1.7,2s-1.2,2.2-2.8,2.2-2.6-.5-2.6-2.1Z"/><path d="M125.5,9.4l3.9-7.7h.7l-3.9,7.7h-.7Z"/><path d="M132,2.4c-.4.5-1.1.8-1.6.9v-.6c.5-.1,1.2-.5,1.7-1.1h.6v7.7h-.7V2.4Z"/><path d="M140.1,5.5c0,2.3-.9,4-2.9,4s-2.9-1.7-2.9-4,.9-4,2.9-4,2.9,1.7,2.9,4ZM139.5,5.5c0-2-.7-3.4-2.3-3.4s-2.3,1.4-2.3,3.4.7,3.4,2.3,3.4,2.3-1.4,2.3-3.4Z"/><path d="M140.7,9.4l3.9-7.7h.7l-3.9,7.7h-.7Z"/><path d="M145.6,8.5c0-2.6,4.4-2.5,4.4-4.8s-.7-1.6-1.8-1.6-1.9.4-1.9,1.5h-.6c0-1.6,1.2-2.1,2.5-2.1s2.5.7,2.5,2.2c0,2.7-4.4,2.7-4.4,4.8v.2h4.5v.6h-5.2v-.8Z"/><path d="M157.6,5.5c0,2.3-.9,4-2.9,4s-2.9-1.7-2.9-4,.9-4,2.9-4,2.9,1.7,2.9,4ZM157,5.5c0-2-.7-3.4-2.3-3.4s-2.3,1.4-2.3,3.4.7,3.4,2.3,3.4,2.3-1.4,2.3-3.4Z"/><path d="M158.6,8.5c0-2.6,4.4-2.5,4.4-4.8s-.7-1.6-1.8-1.6-1.9.4-1.9,1.5h-.6c0-1.6,1.2-2.1,2.5-2.1s2.5.7,2.5,2.2c0,2.7-4.4,2.7-4.4,4.8v.2h4.5v.6h-5.2v-.8Z"/><path d="M164.7,7.4h.6c0,1.1,1,1.5,2,1.5s2.1-.6,2.1-1.6-1-1.7-2.1-1.6h-.8v-.6h.8c1.1,0,1.7-.7,1.7-1.5,0-.8-.5-1.4-1.7-1.4s-1.9.4-1.9,1.5h-.6c0-1.6,1.3-2.1,2.5-2.1s2.4.6,2.4,1.9-.6,1.6-1.3,1.8c1.1.2,1.7.9,1.7,2s-1.2,2.2-2.8,2.2-2.6-.5-2.6-2.1Z"/><path d="M0,9.1h1.4v-2.7h1.6c1.9,0,2.8-1.1,2.8-2.6s-.9-2.5-2.8-2.5H0s0,7.8,0,7.8ZM1.5,5.1v-2.4h1.6c.7,0,1.3.3,1.3,1.2s-.6,1.2-1.3,1.2h-1.6ZM6.6,3.8v5.2h1.4v-2.6c0-.8.4-1.3,1-1.3s.5,0,.8.2l.4-1.5c-.2,0-.5-.2-.8-.2-.6,0-1.2.4-1.4,1.2v-1.1h-1.4,0ZM13,9.2c1.7,0,2.7-1.1,2.7-2.7s-1-2.7-2.7-2.7-2.7,1.1-2.7,2.7,1,2.7,2.7,2.7h0ZM13,8.1c-.9,0-1.3-.7-1.3-1.6s.4-1.6,1.3-1.6,1.3.7,1.3,1.6-.4,1.6-1.3,1.6h0ZM18,3.8h-1.4v7.9h1.4v-3.5c.3.6.9.9,1.6.9,1.6,0,2.3-1.1,2.3-2.7s-.8-2.7-2.3-2.7-1.4.4-1.6.9v-.8ZM19.3,8.1c-.8,0-1.3-.5-1.3-1.6s.5-1.6,1.3-1.6,1.2.7,1.2,1.6-.4,1.6-1.2,1.6h0ZM25.4,9.2c1.7,0,2.7-1.1,2.7-2.7s-1-2.7-2.7-2.7-2.7,1.1-2.7,2.7,1,2.7,2.7,2.7h0ZM25.4,8.1c-.9,0-1.3-.7-1.3-1.6s.4-1.6,1.3-1.6,1.3.7,1.3,1.6-.4,1.6-1.3,1.6h0ZM31.1,3.7c-1.2,0-2.2.5-2.2,1.6,0,2.2,3.1,1.3,3.1,2.2s-.5.5-1,.5c-.8,0-1.3-.4-1.7-.7l-.7.9c.6.6,1.4.9,2.4.9s2.4-.7,2.4-1.7c0-2.1-3.2-1.3-3.2-2.2s.3-.4.9-.4,1.1.4,1.4.7l.8-.8c-.5-.6-1.2-.9-2.2-.9h0ZM37.4,7.9c-.2.1-.4.2-.7.2-.6,0-.8-.3-.8-.9v-2.4h1.6v-1.1h-1.6v-1.4h-1v.3c-.3,1-.5,1.1-1.1,1.1h0v1.1h.8v2.4c0,1.2.6,1.9,2,1.9s.9-.1,1.2-.3l-.4-.9h0ZM39.8,9.2c.7,0,1.3-.3,1.7-.9v.7h1.4v-3.4c0-1.2-.8-1.9-2.3-1.9s-2.2.8-2.4,1.5l1.2.3c.2-.4.5-.7,1.1-.7s1,.3,1,.8v.2h-.9c-1.3.4-2.5.6-2.5,1.9s.7,1.5,1.7,1.5h0ZM40.3,8.1c-.5,0-.8-.2-.8-.6s.5-.6,1.1-.7h.9c0-.1,0,0,0,0,0,1-.5,1.3-1.1,1.3h-.1ZM45.8,3.8v5.2h1.4v-2.8c0-.9.5-1.4,1.2-1.4s1,.5,1,1.1v3.1h1.4v-3.3c0-1.2-.6-2-1.9-2s-1.3.3-1.7.9v-.8h-1.4ZM53.5,1.2c-1.1,0-1.7.7-1.7,1.6s.6,1.6,1.7,1.6,1.7-.7,1.7-1.6-.6-1.6-1.7-1.6h0ZM53.5,3.6c-.5,0-.7-.4-.7-.9s.2-.9.7-.9.7.4.7.9-.2.9-.7.9h0ZM51.8,5.1v.8h3.4v-.8h-3.4ZM56.3,5.5h1.5v-1.5h-1.5v1.5ZM56.3,8.3h1.5v-1.5h-1.5v1.5Z"/><path d="M66.8,9.1h.7V2h-.6c-.5.6-1.2.9-1.7,1.1v.6c.6,0,1.2-.4,1.7-.9v6.4h0Z"/><path d="M83.5,1.3h-2.7v7.8h2.7c2.6,0,4-1.7,4-3.9s-1.4-3.9-4-3.9h0ZM83.5,7.7h-1.4V2.6h1.4c1.7,0,2.6.9,2.6,2.5s-.9,2.5-2.6,2.5h0ZM90,9.2c.6,0,1.3-.3,1.7-.9v.7h1.4v-3.4c0-1.2-.8-1.9-2.3-1.9s-2.2.8-2.4,1.5l1.2.3c.2-.4.5-.7,1.1-.7s1,.3,1,.8v.2h-.8c-1.3.4-2.5.6-2.5,1.9s.7,1.5,1.8,1.5h-.2ZM90.5,8.1c-.5,0-.8-.2-.8-.6s.4-.6,1.1-.7h.8c0-.1,0,0,0,0,0,1-.5,1.3-1.1,1.3h0ZM97.2,7.9c-.2.1-.4.2-.7.2-.6,0-.8-.3-.8-.9v-2.4h1.6v-1.1h-1.6v-1.4h-1v.3c-.4,1-.5,1.1-1.1,1.1h0v1.1h.7v2.4c0,1.2.6,1.9,2,1.9s1-.1,1.2-.3l-.4-.9h.2ZM99.7,9.2c.7,0,1.3-.3,1.7-.9v.7h1.4v-3.4c0-1.2-.8-1.9-2.3-1.9s-2.2.8-2.4,1.5l1.2.3c.2-.4.5-.7,1.1-.7s.9.3.9.8v.2h-.8c-1.3.4-2.5.6-2.5,1.9s.7,1.5,1.8,1.5h0ZM100.1,8.1c-.5,0-.8-.2-.8-.6s.4-.6,1.1-.7h.8c0-.1,0,0,0,0,0,1-.5,1.3-1.1,1.3h0ZM103.7,5.5h1.5v-1.5h-1.5v1.5ZM103.7,8.3h1.5v-1.5h-1.5v1.5Z"/></svg>